<svg id="Layer_1" data-name="Layer 1" xmlns="http://www.w3.org/2000/svg" viewBox="0 0 500 500"><defs><style>.cls-1{fill:#757575;}.cls-2{fill:#636363;}.cls-3{fill:#e0e0e0;}.cls-4{fill:#c4c4c4;}.cls-5{fill:none;stroke:#000;stroke-linecap:round;stroke-linejoin:round;stroke-width:15px;}.cls-6{fill:#f4cf16;}</style></defs><title>satellite-dish</title><path class="cls-1" d="M173.91,492.81H50.4a83.24,83.24,0,0,1,78-54.13h85.39a83.23,83.23,0,0,1,78,54.13H168.23"/><path class="cls-2" d="M291.74,492.81a83.23,83.23,0,0,0-78-54.13h-36a83.23,83.23,0,0,1,78,54.13h36Z"/><polygon class="cls-3" points="137.03 438.68 205.11 438.68 187.11 315.46 155.03 315.46 137.03 438.68"/><polygon class="cls-4" points="187.11 315.46 160.11 315.46 178.11 438.68 205.11 438.68 187.11 315.46"/><circle class="cls-1" cx="171.07" cy="286.02" r="29.43"/><path class="cls-3" d="M424.79,335.41c-82,16.23-169.89-7.09-233-70.15s-86.38-150.95-70.14-233Z"/><path class="cls-4" d="M390.79,301.41c-74.55,14.76-154-3.18-215.16-53.94q7.6,9.18,16.2,17.79c63.07,63.06,151,86.38,233,70.15Z"/><path class="cls-5" d="M424.79,335.41c-82,16.23-169.89-7.09-233-70.15s-86.38-150.95-70.14-233Z"/><line class="cls-5" x1="273.24" y1="183.85" x2="320.39" y2="136.71"/><circle class="cls-6" cx="335.33" cy="121.77" r="21.13"/><circle class="cls-5" cx="335.33" cy="121.77" r="21.13"/><path class="cls-5" d="M346.78,65.57a36,36,0,0,1,44.32,45.17"/><path class="cls-5" d="M350.07,36a64.36,64.36,0,0,1,70.64,71.35"/><path class="cls-5" d="M353.29,7.26a92.75,92.75,0,0,1,96.21,96.88"/><circle class="cls-5" cx="171.07" cy="286.02" r="29.43"/><polygon class="cls-5" points="137.03 438.68 205.11 438.68 187.11 315.46 155.03 315.46 137.03 438.68"/><path class="cls-5" d="M173.91,492.81H50.4a83.24,83.24,0,0,1,78-54.13h85.39a83.23,83.23,0,0,1,78,54.13H168.23"/></svg>